<svg width="55" height="55" viewBox="0 0 55 55" fill="none" xmlns="http://www.w3.org/2000/svg">
<g clip-path="url(#clip0_1_58)">
<circle cx="27.6094" cy="27.4999" r="25.8887" stroke="url(#paint0_linear_1_58)" stroke-width="3.22266"/>
<g clip-path="url(#clip1_1_58)">
<path d="M39.1094 14.6667H35.1094V12H32.4427V14.6667H21.776V12H19.1094V14.6667H15.1094C12.904 14.6667 11.1094 16.4613 11.1094 18.6667V44H43.1094V18.6667C43.1094 16.4613 41.3147 14.6667 39.1094 14.6667ZM40.4427 41.3333H13.776V25.3333H40.4427V41.3333ZM40.4427 22.6667H13.776V18.6667C13.776 17.932 14.3734 17.3333 15.1094 17.3333H39.1094C39.8454 17.3333 40.4427 17.932 40.4427 18.6667V22.6667ZM23.224 37.8853L19.5147 34.2907L21.372 32.3747L25.096 35.984L32.8414 28.3827L34.7134 30.2827L26.9894 37.892C26.4734 38.408 25.7947 38.6653 25.1134 38.6653C24.432 38.6653 23.7454 38.4053 23.224 37.8853Z" fill="url(#paint1_linear_1_58)"/>
</g>
</g>
<defs>
<linearGradient id="paint0_linear_1_58" x1="27.6094" y1="-0.000110626" x2="27.6094" y2="54.9999" gradientUnits="userSpaceOnUse">
<stop stop-color="#F37B22"/>
<stop offset="1" stop-color="#DA257B"/>
</linearGradient>
<linearGradient id="paint1_linear_1_58" x1="27.1094" y1="12" x2="27.1094" y2="44" gradientUnits="userSpaceOnUse">
<stop stop-color="#F37B22"/>
<stop offset="1" stop-color="#DA257B"/>
</linearGradient>
<clipPath id="clip0_1_58">
<rect width="55" height="55" fill="white"/>
</clipPath>
<clipPath id="clip1_1_58">
<rect width="32" height="32" fill="white" transform="translate(11.1094 12)"/>
</clipPath>
</defs>
</svg>
