<svg width="55" height="55" viewBox="0 0 55 55" fill="none" xmlns="http://www.w3.org/2000/svg">
<g clip-path="url(#clip0_1_50)">
<circle cx="27.5" cy="27.4999" r="25.8887" stroke="url(#paint0_linear_1_50)" stroke-width="3.22266"/>
<path d="M37.3333 17.3333H32V16C32 14.9391 31.5786 13.9217 30.8284 13.1716C30.0783 12.4214 29.0609 12 28 12C26.9391 12 25.9217 12.4214 25.1716 13.1716C24.4214 13.9217 24 14.9391 24 16V17.3333H18.6667C16.8992 17.3355 15.2047 18.0385 13.955 19.2883C12.7052 20.5381 12.0021 22.2325 12 24V37.3333C12.0021 39.1008 12.7052 40.7953 13.955 42.045C15.2047 43.2948 16.8992 43.9979 18.6667 44H37.3333C39.1008 43.9979 40.7953 43.2948 42.045 42.045C43.2948 40.7953 43.9979 39.1008 44 37.3333V24C43.9979 22.2325 43.2948 20.5381 42.045 19.2883C40.7953 18.0385 39.1008 17.3355 37.3333 17.3333ZM26.6667 16C26.6667 15.6464 26.8071 15.3072 27.0572 15.0572C27.3072 14.8071 27.6464 14.6667 28 14.6667C28.3536 14.6667 28.6928 14.8071 28.9428 15.0572C29.1929 15.3072 29.3333 15.6464 29.3333 16V18.6667C29.3333 19.0203 29.1929 19.3594 28.9428 19.6095C28.6928 19.8595 28.3536 20 28 20C27.6464 20 27.3072 19.8595 27.0572 19.6095C26.8071 19.3594 26.6667 19.0203 26.6667 18.6667V16ZM41.3333 37.3333C41.3333 38.3942 40.9119 39.4116 40.1618 40.1618C39.4116 40.9119 38.3942 41.3333 37.3333 41.3333H18.6667C17.6058 41.3333 16.5884 40.9119 15.8382 40.1618C15.0881 39.4116 14.6667 38.3942 14.6667 37.3333V24C14.6667 22.9391 15.0881 21.9217 15.8382 21.1716C16.5884 20.4214 17.6058 20 18.6667 20H24.2453C24.5169 20.7794 25.0242 21.455 25.697 21.933C26.3698 22.4111 27.1747 22.6679 28 22.6679C28.8253 22.6679 29.6302 22.4111 30.303 21.933C30.9758 21.455 31.4831 20.7794 31.7547 20H37.3333C38.3942 20 39.4116 20.4214 40.1618 21.1716C40.9119 21.9217 41.3333 22.9391 41.3333 24V37.3333ZM25.3333 25.3333H18.6667C18.313 25.3333 17.9739 25.4738 17.7239 25.7239C17.4738 25.9739 17.3333 26.313 17.3333 26.6667V37.3333C17.3333 37.687 17.4738 38.0261 17.7239 38.2761C17.9739 38.5262 18.313 38.6667 18.6667 38.6667H25.3333C25.687 38.6667 26.0261 38.5262 26.2761 38.2761C26.5262 38.0261 26.6667 37.687 26.6667 37.3333V26.6667C26.6667 26.313 26.5262 25.9739 26.2761 25.7239C26.0261 25.4738 25.687 25.3333 25.3333 25.3333ZM24 36H20V28H24V36ZM38.6667 32C38.6667 32.3536 38.5262 32.6928 38.2761 32.9428C38.0261 33.1929 37.687 33.3333 37.3333 33.3333H30.6667C30.313 33.3333 29.9739 33.1929 29.7239 32.9428C29.4738 32.6928 29.3333 32.3536 29.3333 32C29.3333 31.6464 29.4738 31.3072 29.7239 31.0572C29.9739 30.8071 30.313 30.6667 30.6667 30.6667H37.3333C37.687 30.6667 38.0261 30.8071 38.2761 31.0572C38.5262 31.3072 38.6667 31.6464 38.6667 32ZM38.6667 26.6667C38.6667 27.0203 38.5262 27.3594 38.2761 27.6095C38.0261 27.8595 37.687 28 37.3333 28H30.6667C30.313 28 29.9739 27.8595 29.7239 27.6095C29.4738 27.3594 29.3333 27.0203 29.3333 26.6667C29.3333 26.313 29.4738 25.9739 29.7239 25.7239C29.9739 25.4738 30.313 25.3333 30.6667 25.3333H37.3333C37.687 25.3333 38.0261 25.4738 38.2761 25.7239C38.5262 25.9739 38.6667 26.313 38.6667 26.6667ZM36 37.3333C36 37.687 35.8595 38.0261 35.6095 38.2761C35.3594 38.5262 35.0203 38.6667 34.6667 38.6667H30.6667C30.313 38.6667 29.9739 38.5262 29.7239 38.2761C29.4738 38.0261 29.3333 37.687 29.3333 37.3333C29.3333 36.9797 29.4738 36.6406 29.7239 36.3905C29.9739 36.1405 30.313 36 30.6667 36H34.6667C35.0203 36 35.3594 36.1405 35.6095 36.3905C35.8595 36.6406 36 36.9797 36 37.3333Z" fill="url(#paint1_linear_1_50)"/>
</g>
<defs>
<linearGradient id="paint0_linear_1_50" x1="27.5" y1="-0.000106812" x2="27.5" y2="54.9999" gradientUnits="userSpaceOnUse">
<stop stop-color="#F37B22"/>
<stop offset="1" stop-color="#DA257B"/>
</linearGradient>
<linearGradient id="paint1_linear_1_50" x1="28" y1="12" x2="28" y2="44" gradientUnits="userSpaceOnUse">
<stop stop-color="#F37B22"/>
<stop offset="1" stop-color="#DA257B"/>
</linearGradient>
<clipPath id="clip0_1_50">
<rect width="55" height="55" fill="white"/>
</clipPath>
</defs>
</svg>
